<svg xmlns="http://www.w3.org/2000/svg" viewBox="0 0 512 512">
<defs>
 <radialGradient id="paper"><stop offset="0" stop-color="#f5e5ba"/><stop offset=".75" stop-color="#e7ca8d"/><stop offset="1" stop-color="#c69b51"/></radialGradient>
 <linearGradient id="metal" x2="1" y2="1"><stop stop-color="#f1cf72"/><stop offset=".45" stop-color="#d8b45a"/><stop offset="1" stop-color="#7a4d16"/></linearGradient>
 <linearGradient id="field" y2="1"><stop stop-color="#31597a"/><stop offset="1" stop-color="#211514"/></linearGradient>
 <filter id="shadow"><feDropShadow dx="0" dy="8" stdDeviation="7" flood-opacity=".35"/></filter>
</defs>
<circle cx="256" cy="256" r="238" fill="url(#paper)" stroke="#5b3516" stroke-width="8"/>
<circle cx="256" cy="256" r="218" fill="url(#field)" stroke="url(#metal)" stroke-width="14"/>
<circle cx="256" cy="256" r="195" fill="none" stroke="#e6c56b" stroke-width="3" opacity=".75"/>
<g fill="none" stroke="#caa24b" stroke-width="5" opacity=".75">
 <path d="M75 300 C110 385 175 424 256 432 C337 424 402 385 437 300"/>
 <path d="M75 212 C110 127 175 88 256 80 C337 88 402 127 437 212"/>
</g>
<g filter="url(#shadow)"><path d="M110 180 Q170 110 230 180 L215 350 Q170 390 125 350Z" fill="#f5e6bd" stroke="url(#metal)" stroke-width="8"/>
<path d="M282 180 Q342 110 402 180 L387 350 Q342 390 297 350Z" fill="#f5e6bd" stroke="url(#metal)" stroke-width="8"/>
<path d="M145 240 Q170 220 195 240 M317 240 Q342 220 367 240" stroke="#241713" stroke-width="10" fill="none"/>
<path d="M145 305 Q170 335 195 305 M317 305 Q342 335 367 305" stroke="#241713" stroke-width="10" fill="none"/>
<path d="M256 105 V410" stroke="#8a1f28" stroke-width="9" stroke-dasharray="14 12"/></g></svg>