<svg xmlns="http://www.w3.org/2000/svg" viewBox="0 0 512 512">
<defs>
 <radialGradient id="paper"><stop offset="0" stop-color="#f5e5ba"/><stop offset=".75" stop-color="#e7ca8d"/><stop offset="1" stop-color="#c69b51"/></radialGradient>
 <linearGradient id="metal" x2="1" y2="1"><stop stop-color="#f1cf72"/><stop offset=".45" stop-color="#e8dfc3"/><stop offset="1" stop-color="#7a4d16"/></linearGradient>
 <linearGradient id="field" y2="1"><stop stop-color="#315b48"/><stop offset="1" stop-color="#211514"/></linearGradient>
 <filter id="shadow"><feDropShadow dx="0" dy="8" stdDeviation="7" flood-opacity=".35"/></filter>
</defs>
<circle cx="256" cy="256" r="238" fill="url(#paper)" stroke="#5b3516" stroke-width="8"/>
<circle cx="256" cy="256" r="218" fill="url(#field)" stroke="url(#metal)" stroke-width="14"/>
<circle cx="256" cy="256" r="195" fill="none" stroke="#e6c56b" stroke-width="3" opacity=".75"/>
<g fill="none" stroke="#caa24b" stroke-width="5" opacity=".75">
 <path d="M75 300 C110 385 175 424 256 432 C337 424 402 385 437 300"/>
 <path d="M75 212 C110 127 175 88 256 80 C337 88 402 127 437 212"/>
</g>
<g filter="url(#shadow)"><path d="M130 125 Q250 105 385 145 Q365 260 395 375 Q270 350 120 390 Q145 265 130 125Z" fill="#f5e6bd" stroke="url(#metal)" stroke-width="10"/>
<path d="M155 160 Q250 145 360 175 M150 350 Q260 325 365 350" stroke="#49683c" stroke-width="10" fill="none"/>
<g fill="#49683c"><path d="M190 220 q35-50 70 0 q-35 45-70 0Z"/><path d="M270 260 q35-50 70 0 q-35 45-70 0Z"/></g></g></svg>