<svg xmlns="http://www.w3.org/2000/svg" viewBox="0 0 512 512">
<defs>
 <radialGradient id="paper"><stop offset="0" stop-color="#f5e5ba"/><stop offset=".75" stop-color="#e7ca8d"/><stop offset="1" stop-color="#c69b51"/></radialGradient>
 <linearGradient id="metal" x2="1" y2="1"><stop stop-color="#f1cf72"/><stop offset=".45" stop-color="#d9b854"/><stop offset="1" stop-color="#7a4d16"/></linearGradient>
 <linearGradient id="field" y2="1"><stop stop-color="#6d4b78"/><stop offset="1" stop-color="#211514"/></linearGradient>
 <filter id="shadow"><feDropShadow dx="0" dy="8" stdDeviation="7" flood-opacity=".35"/></filter>
</defs>
<circle cx="256" cy="256" r="238" fill="url(#paper)" stroke="#5b3516" stroke-width="8"/>
<circle cx="256" cy="256" r="218" fill="url(#field)" stroke="url(#metal)" stroke-width="14"/>
<circle cx="256" cy="256" r="195" fill="none" stroke="#e6c56b" stroke-width="3" opacity=".75"/>
<g fill="none" stroke="#caa24b" stroke-width="5" opacity=".75">
 <path d="M75 300 C110 385 175 424 256 432 C337 424 402 385 437 300"/>
 <path d="M75 212 C110 127 175 88 256 80 C337 88 402 127 437 212"/>
</g>
<g filter="url(#shadow)"><g stroke="url(#metal)" stroke-width="13"><path d="M256 85 V135 M256 377 V427 M85 256 H135 M377 256 H427 M135 135 L170 170 M342 342 L377 377 M377 135 L342 170 M170 342 L135 377"/></g>
<circle cx="256" cy="256" r="112" fill="#f5e6bd" stroke="url(#metal)" stroke-width="9"/>
<path d="M165 285 L190 205 L235 255 L256 185 L282 255 L325 205 L350 285Z" fill="url(#metal)" stroke="#241713" stroke-width="7"/></g></svg>