<svg xmlns="http://www.w3.org/2000/svg" viewBox="0 0 512 512">
<defs>
 <radialGradient id="paper"><stop offset="0" stop-color="#f5e5ba"/><stop offset=".75" stop-color="#e7ca8d"/><stop offset="1" stop-color="#c69b51"/></radialGradient>
 <linearGradient id="metal" x2="1" y2="1"><stop stop-color="#f1cf72"/><stop offset=".45" stop-color="#d7b251"/><stop offset="1" stop-color="#7a4d16"/></linearGradient>
 <linearGradient id="field" y2="1"><stop stop-color="#31597a"/><stop offset="1" stop-color="#211514"/></linearGradient>
 <filter id="shadow"><feDropShadow dx="0" dy="8" stdDeviation="7" flood-opacity=".35"/></filter>
</defs>
<circle cx="256" cy="256" r="238" fill="url(#paper)" stroke="#5b3516" stroke-width="8"/>
<circle cx="256" cy="256" r="218" fill="url(#field)" stroke="url(#metal)" stroke-width="14"/>
<circle cx="256" cy="256" r="195" fill="none" stroke="#e6c56b" stroke-width="3" opacity=".75"/>
<g fill="none" stroke="#caa24b" stroke-width="5" opacity=".75">
 <path d="M75 300 C110 385 175 424 256 432 C337 424 402 385 437 300"/>
 <path d="M75 212 C110 127 175 88 256 80 C337 88 402 127 437 212"/>
</g>
<g filter="url(#shadow)"><path d="M80 330 Q130 290 180 330 T280 330 T430 330 V405 H80Z" fill="#2f6b83"/>
<path d="M135 318 L385 318 L350 375 L175 375Z" fill="#6d421f" stroke="url(#metal)" stroke-width="8"/>
<path d="M260 115 V320" stroke="url(#metal)" stroke-width="12"/><path d="M260 135 L155 205 L260 205Z" fill="#f5e6bd" stroke="#5b3516" stroke-width="5"/>
<path d="M270 215 L365 250 L270 270Z" fill="#d7b251" stroke="#5b3516" stroke-width="5"/>
<path d="M95 150 L140 190 L110 205Z" fill="#f5e6bd"/><path d="M95 150 L80 105" stroke="url(#metal)" stroke-width="8"/></g></svg>